<?xml version="1.0" encoding="utf-8"?>
<!-- Generator: Adobe Illustrator 24.0.1, SVG Export Plug-In . SVG Version: 6.00 Build 0)  -->
<svg version="1.1" id="Calque_1" xmlns="http://www.w3.org/2000/svg" xmlns:xlink="http://www.w3.org/1999/xlink" x="0px" y="0px"
	 viewBox="0 0 83.2 37" style="enable-background:new 0 0 83.2 37;" xml:space="preserve">
<style type="text/css">
	.st0{fill:#FFFFFF;}
</style>
<g>
	<path class="st0" d="M78.7,36.9h4.5L77,28.1l4.7-5.9h-4.5L73,27.4v-11h-2c-0.9,0-1.6,0.7-1.7,1.6v18.9H73v-3.8l1.6-2L78.7,36.9z
		 M59.8,36.9V23.8c0-0.9,0.8-1.7,1.7-1.7l0,0h1.9v3.6c0.6-2.2,2.5-3.7,4.7-3.8l0.7,0.1v3.6c-0.3,0-0.6,0-0.9-0.1
		c-1.9,0-3.5,1.3-4,3.1c-0.2,0.8-0.3,1.6-0.3,2.4v5.9H59.8z M46.1,28.9c0,1.2,0.5,2.4,1.4,3.2c0.8,0.8,2,1.3,3.2,1.3H51
		c1.2,0,2.4-0.5,3.2-1.4c0.8-0.8,1.3-2,1.3-3.2h3.6c0,4.5-3.6,8.1-8.1,8.2h-0.3c-4.5,0-8.1-3.6-8.2-8.1H46.1z M38.3,22.1l-2.5,8.5
		l-2.5-8.5h-3.9l-2.5,8.5l-2.5-8.5h-1.7c-0.9,0-1.6,0.7-1.6,1.6c0,0.2,0,0.3,0.1,0.5L25,36.9h3.8l2.6-8.5l2.6,8.5h3.8l4.5-14.8
		L38.3,22.1z M46.1,20.2c0-1.2,0.5-2.4,1.4-3.2c0.8-0.8,2-1.3,3.2-1.3H51c1.2,0,2.4,0.5,3.2,1.3c0.8,0.8,1.3,2,1.3,3.2h3.6
		c0-4.5-3.6-8.1-8.1-8.2h-0.3c-4.5,0-8.1,3.6-8.2,8.1L46.1,20.2z M37.7,0h2v15.6c0,1.5,0.5,2,1.5,2h0.5v3.2C41.4,20.9,41,21,40.6,21
		c-1.1,0-2.1-0.2-3-0.8c-1-0.6-1.5-2-1.5-4V1.7C36.1,0.8,36.8,0,37.7,0z M31.1,0h2v15.6c0,1.5,0.5,2,1.5,2h0.5v3.2
		C34.7,20.9,34.3,21,34,21c-1.1,0.1-2.1-0.2-3-0.8c-1-0.6-1.5-2-1.5-4V1.7C29.4,0.8,30.1,0,31.1,0z M16.7,7.6
		c1.4-1.5,3.4-2.2,5.4-2.2c1.8-0.1,3.6,0.6,4.8,2c1.2,1.4,1.8,3.2,1.7,5l-0.1,1.4H18.3c0.2,2.3,2.1,4,4.4,3.9c1.3,0,2.6-0.5,3.7-1.2
		l0.5-0.4l1.4,2.6c-0.3,0.3-0.6,0.6-1,0.8c-1.5,0.9-3.2,1.4-5,1.4c-2.1,0.1-4.2-0.7-5.8-2.2c-1.4-1.5-2.2-3.5-2.2-5.5
		C14.5,11.2,15.2,9.1,16.7,7.6z M24.9,11.4c0.1-1.6-1.1-2.9-2.6-3.1H22c-1.8-0.1-3.4,1.3-3.5,3.1H24.9z M0,20.6V1.7
		C0,0.8,0.8,0,1.7,0h2v7.1l0,1.2h0.1c1-1.8,3-3,5.1-2.9c3.4,0,5.1,1.9,5.1,5.6v9.5h-3.6v-8.8c0-2-0.6-3-2.3-3c-1.9,0-3.5,1.3-4,3.1
		c-0.2,0.6-0.2,1.3-0.2,1.9v6.8H0z"/>
</g>
</svg>
